<svg xmlns="http://www.w3.org/2000/svg" width="760" height="1180" viewBox="0 0 760 1180" font-family="'Space Grotesk','Segoe UI','Archivo',Arial,sans-serif">
  <defs>
    <linearGradient id="aura" x1="0" y1="0" x2="1" y2="0">
      <stop offset="0" stop-color="#D53AD8"/><stop offset="0.5" stop-color="#FF4D7D"/><stop offset="1" stop-color="#FF9145"/>
    </linearGradient>
  </defs>
  <rect x="0" y="0" width="760" height="1180" rx="34" fill="#0A0B10"/>
  <rect x="1.5" y="1.5" width="757" height="1177" rx="32" fill="none" stroke="rgba(255,255,255,0.10)" stroke-width="1.5"/>
  <rect x="52" y="34" width="656" height="4" rx="2" fill="url(#aura)"/>
  <text x="52" y="70" font-family="'Space Grotesk','Segoe UI','Archivo',Arial,sans-serif" font-weight="700" font-size="24" letter-spacing="1" fill="#F4F1EA">z<tspan fill="url(#aura)">o</tspan>ra</text>
  <text x="708" y="70" text-anchor="end" font-family="'IBM Plex Mono','Consolas','Courier New',monospace" font-size="12.5" letter-spacing="2.4" fill="#4C6FFF">VIP TABLE PACKAGE · PASS</text>
  <text x="52" y="110" font-family="'IBM Plex Mono','Consolas','Courier New',monospace" font-size="12.5" letter-spacing="2.4" fill="#8B8C97">EVENT</text>
  <text x="52" y="140" font-family="'Space Grotesk','Segoe UI','Archivo',Arial,sans-serif" font-weight="700" font-size="46" fill="#F4F1EA">OFFSHORE — The Daytime</text><text x="52" y="190" font-family="'Space Grotesk','Segoe UI','Archivo',Arial,sans-serif" font-weight="700" font-size="46" fill="#F4F1EA">Yacht Groove</text>
  <text x="52" y="242" font-family="'IBM Plex Mono','Consolas','Courier New',monospace" font-size="12.5" letter-spacing="2.4" fill="#8B8C97">DATE</text>
  <text x="380" y="242" font-family="'IBM Plex Mono','Consolas','Courier New',monospace" font-size="12.5" letter-spacing="2.4" fill="#8B8C97">VENUE</text>
  <text x="52" y="270" font-family="'Space Grotesk','Segoe UI','Archivo',Arial,sans-serif" font-weight="500" font-size="21" fill="#F4F1EA">Sat 25 Jul 2026 · 14:00</text>
  <text x="380" y="270" font-family="'Space Grotesk','Segoe UI','Archivo',Arial,sans-serif" font-weight="500" font-size="21" fill="#F4F1EA">Slipway Marina → undisclosed</text><text x="380" y="296" font-family="'Space Grotesk','Segoe UI','Archivo',Arial,sans-serif" font-weight="500" font-size="21" fill="#F4F1EA">sandbank</text>
  <rect x="52" y="310" width="656" height="238" rx="20" fill="rgba(76,111,255,0.10)" stroke="rgba(124,160,255,0.45)" stroke-width="1.5"/>
  <rect x="52" y="310" width="5" height="238" rx="2.5" fill="url(#aura)"/>
  <text x="82" y="350" font-family="'IBM Plex Mono','Consolas','Courier New',monospace" font-size="12.5" letter-spacing="2.4" fill="#8B8C97">TABLE</text>
  <text x="82" y="384" font-family="'Space Grotesk','Segoe UI','Archivo',Arial,sans-serif" font-weight="700" font-size="34" fill="#F4F1EA">VIP Platinum Lounge —</text><text x="82" y="422" font-family="'Space Grotesk','Segoe UI','Archivo',Arial,sans-serif" font-weight="700" font-size="34" fill="#F4F1EA">Captain's Deck</text>
  <text x="82" y="480" font-family="'IBM Plex Mono','Consolas','Courier New',monospace" font-size="12.5" letter-spacing="2.4" fill="#8B8C97">TABLE NO.</text>
  <text x="419.36" y="480" font-family="'IBM Plex Mono','Consolas','Courier New',monospace" font-size="12.5" letter-spacing="2.4" fill="#8B8C97">SEATS / GUESTS</text>
  <text x="82" y="514" font-family="'Space Grotesk','Segoe UI','Archivo',Arial,sans-serif" font-weight="700" font-size="30" fill="#4C6FFF">Table 04</text>
  <text x="419.36" y="514" font-family="'Space Grotesk','Segoe UI','Archivo',Arial,sans-serif" font-weight="700" font-size="30" fill="#F4F1EA">6 guests</text>
  <circle cx="0" cy="582" r="13" fill="#0A0B10"/><circle cx="760" cy="582" r="13" fill="#0A0B10"/><line x1="38" y1="582" x2="722" y2="582" stroke="rgba(255,255,255,0.13)" stroke-width="2" stroke-dasharray="2 8" stroke-linecap="round"/>
  <text x="52" y="626" font-family="'IBM Plex Mono','Consolas','Courier New',monospace" font-size="12.5" letter-spacing="2.4" fill="#8B8C97">GUEST</text>
  <text x="52" y="656" font-family="'Space Grotesk','Segoe UI','Archivo',Arial,sans-serif" font-weight="700" font-size="40" fill="#F4F1EA">Amina Juma Hassan</text>
  <text x="52" y="706" font-family="'IBM Plex Mono','Consolas','Courier New',monospace" font-size="12.5" letter-spacing="2.4" fill="#8B8C97">TICKET ID</text>
  <text x="380" y="706" font-family="'IBM Plex Mono','Consolas','Courier New',monospace" font-size="12.5" letter-spacing="2.4" fill="#8B8C97">TIER</text>
  <text x="52" y="736" font-family="'IBM Plex Mono','Consolas','Courier New',monospace" font-weight="500" font-size="21" letter-spacing="1" fill="#F4F1EA">ZORA-OFF1-4471-88AK</text>
  <text x="380" y="736" font-family="'Space Grotesk','Segoe UI','Archivo',Arial,sans-serif" font-weight="700" font-size="21" fill="#F4F1EA">VIP Table Package</text>
  <circle cx="0" cy="790" r="13" fill="#0A0B10"/><circle cx="760" cy="790" r="13" fill="#0A0B10"/><line x1="38" y1="790" x2="722" y2="790" stroke="rgba(255,255,255,0.13)" stroke-width="2" stroke-dasharray="2 8" stroke-linecap="round"/>
  <rect x="52" y="834" width="256" height="256" rx="18" fill="#FFFFFF"/>
  <rect x="72.00" y="854.00" width="9.14" height="9.14" fill="#0A0B10"/><rect x="80.64" y="854.00" width="9.14" height="9.14" fill="#0A0B10"/><rect x="89.28" y="854.00" width="9.14" height="9.14" fill="#0A0B10"/><rect x="97.92" y="854.00" width="9.14" height="9.14" fill="#0A0B10"/><rect x="106.56" y="854.00" width="9.14" height="9.14" fill="#0A0B10"/><rect x="115.20" y="854.00" width="9.14" height="9.14" fill="#0A0B10"/><rect x="123.84" y="854.00" width="9.14" height="9.14" fill="#0A0B10"/><rect x="141.12" y="854.00" width="9.14" height="9.14" fill="#0A0B10"/><rect x="175.68" y="854.00" width="9.14" height="9.14" fill="#0A0B10"/><rect x="192.96" y="854.00" width="9.14" height="9.14" fill="#0A0B10"/><rect x="210.24" y="854.00" width="9.14" height="9.14" fill="#0A0B10"/><rect x="227.52" y="854.00" width="9.14" height="9.14" fill="#0A0B10"/><rect x="236.16" y="854.00" width="9.14" height="9.14" fill="#0A0B10"/><rect x="244.80" y="854.00" width="9.14" height="9.14" fill="#0A0B10"/><rect x="253.44" y="854.00" width="9.14" height="9.14" fill="#0A0B10"/><rect x="262.08" y="854.00" width="9.14" height="9.14" fill="#0A0B10"/><rect x="270.72" y="854.00" width="9.14" height="9.14" fill="#0A0B10"/><rect x="279.36" y="854.00" width="9.14" height="9.14" fill="#0A0B10"/><rect x="72.00" y="862.64" width="9.14" height="9.14" fill="#0A0B10"/><rect x="123.84" y="862.64" width="9.14" height="9.14" fill="#0A0B10"/><rect x="141.12" y="862.64" width="9.14" height="9.14" fill="#0A0B10"/><rect x="149.76" y="862.64" width="9.14" height="9.14" fill="#0A0B10"/><rect x="167.04" y="862.64" width="9.14" height="9.14" fill="#0A0B10"/><rect x="175.68" y="862.64" width="9.14" height="9.14" fill="#0A0B10"/><rect x="184.32" y="862.64" width="9.14" height="9.14" fill="#0A0B10"/><rect x="192.96" y="862.64" width="9.14" height="9.14" fill="#0A0B10"/><rect x="227.52" y="862.64" width="9.14" height="9.14" fill="#0A0B10"/><rect x="279.36" y="862.64" width="9.14" height="9.14" fill="#0A0B10"/><rect x="72.00" y="871.28" width="9.14" height="9.14" fill="#0A0B10"/><rect x="89.28" y="871.28" width="9.14" height="9.14" fill="#0A0B10"/><rect x="97.92" y="871.28" width="9.14" height="9.14" fill="#0A0B10"/><rect x="106.56" y="871.28" width="9.14" height="9.14" fill="#0A0B10"/><rect x="123.84" y="871.28" width="9.14" height="9.14" fill="#0A0B10"/><rect x="149.76" y="871.28" width="9.14" height="9.14" fill="#0A0B10"/><rect x="158.40" y="871.28" width="9.14" height="9.14" fill="#0A0B10"/><rect x="184.32" y="871.28" width="9.14" height="9.14" fill="#0A0B10"/><rect x="201.60" y="871.28" width="9.14" height="9.14" fill="#0A0B10"/><rect x="227.52" y="871.28" width="9.14" height="9.14" fill="#0A0B10"/><rect x="244.80" y="871.28" width="9.14" height="9.14" fill="#0A0B10"/><rect x="253.44" y="871.28" width="9.14" height="9.14" fill="#0A0B10"/><rect x="262.08" y="871.28" width="9.14" height="9.14" fill="#0A0B10"/><rect x="279.36" y="871.28" width="9.14" height="9.14" fill="#0A0B10"/><rect x="72.00" y="879.92" width="9.14" height="9.14" fill="#0A0B10"/><rect x="89.28" y="879.92" width="9.14" height="9.14" fill="#0A0B10"/><rect x="97.92" y="879.92" width="9.14" height="9.14" fill="#0A0B10"/><rect x="106.56" y="879.92" width="9.14" height="9.14" fill="#0A0B10"/><rect x="123.84" y="879.92" width="9.14" height="9.14" fill="#0A0B10"/><rect x="141.12" y="879.92" width="9.14" height="9.14" fill="#0A0B10"/><rect x="149.76" y="879.92" width="9.14" height="9.14" fill="#0A0B10"/><rect x="175.68" y="879.92" width="9.14" height="9.14" fill="#0A0B10"/><rect x="184.32" y="879.92" width="9.14" height="9.14" fill="#0A0B10"/><rect x="227.52" y="879.92" width="9.14" height="9.14" fill="#0A0B10"/><rect x="244.80" y="879.92" width="9.14" height="9.14" fill="#0A0B10"/><rect x="253.44" y="879.92" width="9.14" height="9.14" fill="#0A0B10"/><rect x="262.08" y="879.92" width="9.14" height="9.14" fill="#0A0B10"/><rect x="279.36" y="879.92" width="9.14" height="9.14" fill="#0A0B10"/><rect x="72.00" y="888.56" width="9.14" height="9.14" fill="#0A0B10"/><rect x="89.28" y="888.56" width="9.14" height="9.14" fill="#0A0B10"/><rect x="97.92" y="888.56" width="9.14" height="9.14" fill="#0A0B10"/><rect x="106.56" y="888.56" width="9.14" height="9.14" fill="#0A0B10"/><rect x="123.84" y="888.56" width="9.14" height="9.14" fill="#0A0B10"/><rect x="158.40" y="888.56" width="9.14" height="9.14" fill="#0A0B10"/><rect x="167.04" y="888.56" width="9.14" height="9.14" fill="#0A0B10"/><rect x="184.32" y="888.56" width="9.14" height="9.14" fill="#0A0B10"/><rect x="192.96" y="888.56" width="9.14" height="9.14" fill="#0A0B10"/><rect x="210.24" y="888.56" width="9.14" height="9.14" fill="#0A0B10"/><rect x="227.52" y="888.56" width="9.14" height="9.14" fill="#0A0B10"/><rect x="244.80" y="888.56" width="9.14" height="9.14" fill="#0A0B10"/><rect x="253.44" y="888.56" width="9.14" height="9.14" fill="#0A0B10"/><rect x="262.08" y="888.56" width="9.14" height="9.14" fill="#0A0B10"/><rect x="279.36" y="888.56" width="9.14" height="9.14" fill="#0A0B10"/><rect x="72.00" y="897.20" width="9.14" height="9.14" fill="#0A0B10"/><rect x="123.84" y="897.20" width="9.14" height="9.14" fill="#0A0B10"/><rect x="149.76" y="897.20" width="9.14" height="9.14" fill="#0A0B10"/><rect x="175.68" y="897.20" width="9.14" height="9.14" fill="#0A0B10"/><rect x="192.96" y="897.20" width="9.14" height="9.14" fill="#0A0B10"/><rect x="210.24" y="897.20" width="9.14" height="9.14" fill="#0A0B10"/><rect x="227.52" y="897.20" width="9.14" height="9.14" fill="#0A0B10"/><rect x="279.36" y="897.20" width="9.14" height="9.14" fill="#0A0B10"/><rect x="72.00" y="905.84" width="9.14" height="9.14" fill="#0A0B10"/><rect x="80.64" y="905.84" width="9.14" height="9.14" fill="#0A0B10"/><rect x="89.28" y="905.84" width="9.14" height="9.14" fill="#0A0B10"/><rect x="97.92" y="905.84" width="9.14" height="9.14" fill="#0A0B10"/><rect x="106.56" y="905.84" width="9.14" height="9.14" fill="#0A0B10"/><rect x="115.20" y="905.84" width="9.14" height="9.14" fill="#0A0B10"/><rect x="123.84" y="905.84" width="9.14" height="9.14" fill="#0A0B10"/><rect x="141.12" y="905.84" width="9.14" height="9.14" fill="#0A0B10"/><rect x="158.40" y="905.84" width="9.14" height="9.14" fill="#0A0B10"/><rect x="175.68" y="905.84" width="9.14" height="9.14" fill="#0A0B10"/><rect x="192.96" y="905.84" width="9.14" height="9.14" fill="#0A0B10"/><rect x="210.24" y="905.84" width="9.14" height="9.14" fill="#0A0B10"/><rect x="227.52" y="905.84" width="9.14" height="9.14" fill="#0A0B10"/><rect x="236.16" y="905.84" width="9.14" height="9.14" fill="#0A0B10"/><rect x="244.80" y="905.84" width="9.14" height="9.14" fill="#0A0B10"/><rect x="253.44" y="905.84" width="9.14" height="9.14" fill="#0A0B10"/><rect x="262.08" y="905.84" width="9.14" height="9.14" fill="#0A0B10"/><rect x="270.72" y="905.84" width="9.14" height="9.14" fill="#0A0B10"/><rect x="279.36" y="905.84" width="9.14" height="9.14" fill="#0A0B10"/><rect x="141.12" y="914.48" width="9.14" height="9.14" fill="#0A0B10"/><rect x="149.76" y="914.48" width="9.14" height="9.14" fill="#0A0B10"/><rect x="158.40" y="914.48" width="9.14" height="9.14" fill="#0A0B10"/><rect x="167.04" y="914.48" width="9.14" height="9.14" fill="#0A0B10"/><rect x="184.32" y="914.48" width="9.14" height="9.14" fill="#0A0B10"/><rect x="192.96" y="914.48" width="9.14" height="9.14" fill="#0A0B10"/><rect x="201.60" y="914.48" width="9.14" height="9.14" fill="#0A0B10"/><rect x="72.00" y="923.12" width="9.14" height="9.14" fill="#0A0B10"/><rect x="89.28" y="923.12" width="9.14" height="9.14" fill="#0A0B10"/><rect x="97.92" y="923.12" width="9.14" height="9.14" fill="#0A0B10"/><rect x="115.20" y="923.12" width="9.14" height="9.14" fill="#0A0B10"/><rect x="123.84" y="923.12" width="9.14" height="9.14" fill="#0A0B10"/><rect x="132.48" y="923.12" width="9.14" height="9.14" fill="#0A0B10"/><rect x="158.40" y="923.12" width="9.14" height="9.14" fill="#0A0B10"/><rect x="167.04" y="923.12" width="9.14" height="9.14" fill="#0A0B10"/><rect x="175.68" y="923.12" width="9.14" height="9.14" fill="#0A0B10"/><rect x="184.32" y="923.12" width="9.14" height="9.14" fill="#0A0B10"/><rect x="192.96" y="923.12" width="9.14" height="9.14" fill="#0A0B10"/><rect x="201.60" y="923.12" width="9.14" height="9.14" fill="#0A0B10"/><rect x="210.24" y="923.12" width="9.14" height="9.14" fill="#0A0B10"/><rect x="227.52" y="923.12" width="9.14" height="9.14" fill="#0A0B10"/><rect x="253.44" y="923.12" width="9.14" height="9.14" fill="#0A0B10"/><rect x="270.72" y="923.12" width="9.14" height="9.14" fill="#0A0B10"/><rect x="279.36" y="923.12" width="9.14" height="9.14" fill="#0A0B10"/><rect x="72.00" y="931.76" width="9.14" height="9.14" fill="#0A0B10"/><rect x="80.64" y="931.76" width="9.14" height="9.14" fill="#0A0B10"/><rect x="97.92" y="931.76" width="9.14" height="9.14" fill="#0A0B10"/><rect x="106.56" y="931.76" width="9.14" height="9.14" fill="#0A0B10"/><rect x="141.12" y="931.76" width="9.14" height="9.14" fill="#0A0B10"/><rect x="149.76" y="931.76" width="9.14" height="9.14" fill="#0A0B10"/><rect x="175.68" y="931.76" width="9.14" height="9.14" fill="#0A0B10"/><rect x="244.80" y="931.76" width="9.14" height="9.14" fill="#0A0B10"/><rect x="253.44" y="931.76" width="9.14" height="9.14" fill="#0A0B10"/><rect x="270.72" y="931.76" width="9.14" height="9.14" fill="#0A0B10"/><rect x="72.00" y="940.40" width="9.14" height="9.14" fill="#0A0B10"/><rect x="115.20" y="940.40" width="9.14" height="9.14" fill="#0A0B10"/><rect x="123.84" y="940.40" width="9.14" height="9.14" fill="#0A0B10"/><rect x="158.40" y="940.40" width="9.14" height="9.14" fill="#0A0B10"/><rect x="175.68" y="940.40" width="9.14" height="9.14" fill="#0A0B10"/><rect x="184.32" y="940.40" width="9.14" height="9.14" fill="#0A0B10"/><rect x="192.96" y="940.40" width="9.14" height="9.14" fill="#0A0B10"/><rect x="201.60" y="940.40" width="9.14" height="9.14" fill="#0A0B10"/><rect x="210.24" y="940.40" width="9.14" height="9.14" fill="#0A0B10"/><rect x="244.80" y="940.40" width="9.14" height="9.14" fill="#0A0B10"/><rect x="262.08" y="940.40" width="9.14" height="9.14" fill="#0A0B10"/><rect x="72.00" y="949.04" width="9.14" height="9.14" fill="#0A0B10"/><rect x="80.64" y="949.04" width="9.14" height="9.14" fill="#0A0B10"/><rect x="89.28" y="949.04" width="9.14" height="9.14" fill="#0A0B10"/><rect x="97.92" y="949.04" width="9.14" height="9.14" fill="#0A0B10"/><rect x="115.20" y="949.04" width="9.14" height="9.14" fill="#0A0B10"/><rect x="141.12" y="949.04" width="9.14" height="9.14" fill="#0A0B10"/><rect x="158.40" y="949.04" width="9.14" height="9.14" fill="#0A0B10"/><rect x="167.04" y="949.04" width="9.14" height="9.14" fill="#0A0B10"/><rect x="175.68" y="949.04" width="9.14" height="9.14" fill="#0A0B10"/><rect x="201.60" y="949.04" width="9.14" height="9.14" fill="#0A0B10"/><rect x="210.24" y="949.04" width="9.14" height="9.14" fill="#0A0B10"/><rect x="218.88" y="949.04" width="9.14" height="9.14" fill="#0A0B10"/><rect x="227.52" y="949.04" width="9.14" height="9.14" fill="#0A0B10"/><rect x="236.16" y="949.04" width="9.14" height="9.14" fill="#0A0B10"/><rect x="253.44" y="949.04" width="9.14" height="9.14" fill="#0A0B10"/><rect x="262.08" y="949.04" width="9.14" height="9.14" fill="#0A0B10"/><rect x="270.72" y="949.04" width="9.14" height="9.14" fill="#0A0B10"/><rect x="279.36" y="949.04" width="9.14" height="9.14" fill="#0A0B10"/><rect x="89.28" y="957.68" width="9.14" height="9.14" fill="#0A0B10"/><rect x="115.20" y="957.68" width="9.14" height="9.14" fill="#0A0B10"/><rect x="123.84" y="957.68" width="9.14" height="9.14" fill="#0A0B10"/><rect x="141.12" y="957.68" width="9.14" height="9.14" fill="#0A0B10"/><rect x="184.32" y="957.68" width="9.14" height="9.14" fill="#0A0B10"/><rect x="201.60" y="957.68" width="9.14" height="9.14" fill="#0A0B10"/><rect x="244.80" y="957.68" width="9.14" height="9.14" fill="#0A0B10"/><rect x="253.44" y="957.68" width="9.14" height="9.14" fill="#0A0B10"/><rect x="262.08" y="957.68" width="9.14" height="9.14" fill="#0A0B10"/><rect x="270.72" y="957.68" width="9.14" height="9.14" fill="#0A0B10"/><rect x="80.64" y="966.32" width="9.14" height="9.14" fill="#0A0B10"/><rect x="89.28" y="966.32" width="9.14" height="9.14" fill="#0A0B10"/><rect x="97.92" y="966.32" width="9.14" height="9.14" fill="#0A0B10"/><rect x="106.56" y="966.32" width="9.14" height="9.14" fill="#0A0B10"/><rect x="115.20" y="966.32" width="9.14" height="9.14" fill="#0A0B10"/><rect x="158.40" y="966.32" width="9.14" height="9.14" fill="#0A0B10"/><rect x="167.04" y="966.32" width="9.14" height="9.14" fill="#0A0B10"/><rect x="201.60" y="966.32" width="9.14" height="9.14" fill="#0A0B10"/><rect x="227.52" y="966.32" width="9.14" height="9.14" fill="#0A0B10"/><rect x="244.80" y="966.32" width="9.14" height="9.14" fill="#0A0B10"/><rect x="270.72" y="966.32" width="9.14" height="9.14" fill="#0A0B10"/><rect x="279.36" y="966.32" width="9.14" height="9.14" fill="#0A0B10"/><rect x="80.64" y="974.96" width="9.14" height="9.14" fill="#0A0B10"/><rect x="89.28" y="974.96" width="9.14" height="9.14" fill="#0A0B10"/><rect x="97.92" y="974.96" width="9.14" height="9.14" fill="#0A0B10"/><rect x="123.84" y="974.96" width="9.14" height="9.14" fill="#0A0B10"/><rect x="141.12" y="974.96" width="9.14" height="9.14" fill="#0A0B10"/><rect x="158.40" y="974.96" width="9.14" height="9.14" fill="#0A0B10"/><rect x="175.68" y="974.96" width="9.14" height="9.14" fill="#0A0B10"/><rect x="184.32" y="974.96" width="9.14" height="9.14" fill="#0A0B10"/><rect x="210.24" y="974.96" width="9.14" height="9.14" fill="#0A0B10"/><rect x="236.16" y="974.96" width="9.14" height="9.14" fill="#0A0B10"/><rect x="253.44" y="974.96" width="9.14" height="9.14" fill="#0A0B10"/><rect x="262.08" y="974.96" width="9.14" height="9.14" fill="#0A0B10"/><rect x="270.72" y="974.96" width="9.14" height="9.14" fill="#0A0B10"/><rect x="72.00" y="983.60" width="9.14" height="9.14" fill="#0A0B10"/><rect x="89.28" y="983.60" width="9.14" height="9.14" fill="#0A0B10"/><rect x="115.20" y="983.60" width="9.14" height="9.14" fill="#0A0B10"/><rect x="149.76" y="983.60" width="9.14" height="9.14" fill="#0A0B10"/><rect x="175.68" y="983.60" width="9.14" height="9.14" fill="#0A0B10"/><rect x="192.96" y="983.60" width="9.14" height="9.14" fill="#0A0B10"/><rect x="210.24" y="983.60" width="9.14" height="9.14" fill="#0A0B10"/><rect x="236.16" y="983.60" width="9.14" height="9.14" fill="#0A0B10"/><rect x="253.44" y="983.60" width="9.14" height="9.14" fill="#0A0B10"/><rect x="106.56" y="992.24" width="9.14" height="9.14" fill="#0A0B10"/><rect x="123.84" y="992.24" width="9.14" height="9.14" fill="#0A0B10"/><rect x="132.48" y="992.24" width="9.14" height="9.14" fill="#0A0B10"/><rect x="149.76" y="992.24" width="9.14" height="9.14" fill="#0A0B10"/><rect x="167.04" y="992.24" width="9.14" height="9.14" fill="#0A0B10"/><rect x="184.32" y="992.24" width="9.14" height="9.14" fill="#0A0B10"/><rect x="201.60" y="992.24" width="9.14" height="9.14" fill="#0A0B10"/><rect x="210.24" y="992.24" width="9.14" height="9.14" fill="#0A0B10"/><rect x="218.88" y="992.24" width="9.14" height="9.14" fill="#0A0B10"/><rect x="227.52" y="992.24" width="9.14" height="9.14" fill="#0A0B10"/><rect x="236.16" y="992.24" width="9.14" height="9.14" fill="#0A0B10"/><rect x="244.80" y="992.24" width="9.14" height="9.14" fill="#0A0B10"/><rect x="253.44" y="992.24" width="9.14" height="9.14" fill="#0A0B10"/><rect x="262.08" y="992.24" width="9.14" height="9.14" fill="#0A0B10"/><rect x="270.72" y="992.24" width="9.14" height="9.14" fill="#0A0B10"/><rect x="279.36" y="992.24" width="9.14" height="9.14" fill="#0A0B10"/><rect x="141.12" y="1000.88" width="9.14" height="9.14" fill="#0A0B10"/><rect x="149.76" y="1000.88" width="9.14" height="9.14" fill="#0A0B10"/><rect x="158.40" y="1000.88" width="9.14" height="9.14" fill="#0A0B10"/><rect x="175.68" y="1000.88" width="9.14" height="9.14" fill="#0A0B10"/><rect x="184.32" y="1000.88" width="9.14" height="9.14" fill="#0A0B10"/><rect x="192.96" y="1000.88" width="9.14" height="9.14" fill="#0A0B10"/><rect x="210.24" y="1000.88" width="9.14" height="9.14" fill="#0A0B10"/><rect x="244.80" y="1000.88" width="9.14" height="9.14" fill="#0A0B10"/><rect x="270.72" y="1000.88" width="9.14" height="9.14" fill="#0A0B10"/><rect x="279.36" y="1000.88" width="9.14" height="9.14" fill="#0A0B10"/><rect x="72.00" y="1009.52" width="9.14" height="9.14" fill="#0A0B10"/><rect x="80.64" y="1009.52" width="9.14" height="9.14" fill="#0A0B10"/><rect x="89.28" y="1009.52" width="9.14" height="9.14" fill="#0A0B10"/><rect x="97.92" y="1009.52" width="9.14" height="9.14" fill="#0A0B10"/><rect x="106.56" y="1009.52" width="9.14" height="9.14" fill="#0A0B10"/><rect x="115.20" y="1009.52" width="9.14" height="9.14" fill="#0A0B10"/><rect x="123.84" y="1009.52" width="9.14" height="9.14" fill="#0A0B10"/><rect x="141.12" y="1009.52" width="9.14" height="9.14" fill="#0A0B10"/><rect x="149.76" y="1009.52" width="9.14" height="9.14" fill="#0A0B10"/><rect x="167.04" y="1009.52" width="9.14" height="9.14" fill="#0A0B10"/><rect x="175.68" y="1009.52" width="9.14" height="9.14" fill="#0A0B10"/><rect x="210.24" y="1009.52" width="9.14" height="9.14" fill="#0A0B10"/><rect x="227.52" y="1009.52" width="9.14" height="9.14" fill="#0A0B10"/><rect x="244.80" y="1009.52" width="9.14" height="9.14" fill="#0A0B10"/><rect x="253.44" y="1009.52" width="9.14" height="9.14" fill="#0A0B10"/><rect x="262.08" y="1009.52" width="9.14" height="9.14" fill="#0A0B10"/><rect x="270.72" y="1009.52" width="9.14" height="9.14" fill="#0A0B10"/><rect x="279.36" y="1009.52" width="9.14" height="9.14" fill="#0A0B10"/><rect x="72.00" y="1018.16" width="9.14" height="9.14" fill="#0A0B10"/><rect x="123.84" y="1018.16" width="9.14" height="9.14" fill="#0A0B10"/><rect x="141.12" y="1018.16" width="9.14" height="9.14" fill="#0A0B10"/><rect x="149.76" y="1018.16" width="9.14" height="9.14" fill="#0A0B10"/><rect x="175.68" y="1018.16" width="9.14" height="9.14" fill="#0A0B10"/><rect x="192.96" y="1018.16" width="9.14" height="9.14" fill="#0A0B10"/><rect x="210.24" y="1018.16" width="9.14" height="9.14" fill="#0A0B10"/><rect x="244.80" y="1018.16" width="9.14" height="9.14" fill="#0A0B10"/><rect x="270.72" y="1018.16" width="9.14" height="9.14" fill="#0A0B10"/><rect x="72.00" y="1026.80" width="9.14" height="9.14" fill="#0A0B10"/><rect x="89.28" y="1026.80" width="9.14" height="9.14" fill="#0A0B10"/><rect x="97.92" y="1026.80" width="9.14" height="9.14" fill="#0A0B10"/><rect x="106.56" y="1026.80" width="9.14" height="9.14" fill="#0A0B10"/><rect x="123.84" y="1026.80" width="9.14" height="9.14" fill="#0A0B10"/><rect x="167.04" y="1026.80" width="9.14" height="9.14" fill="#0A0B10"/><rect x="201.60" y="1026.80" width="9.14" height="9.14" fill="#0A0B10"/><rect x="210.24" y="1026.80" width="9.14" height="9.14" fill="#0A0B10"/><rect x="218.88" y="1026.80" width="9.14" height="9.14" fill="#0A0B10"/><rect x="227.52" y="1026.80" width="9.14" height="9.14" fill="#0A0B10"/><rect x="236.16" y="1026.80" width="9.14" height="9.14" fill="#0A0B10"/><rect x="244.80" y="1026.80" width="9.14" height="9.14" fill="#0A0B10"/><rect x="279.36" y="1026.80" width="9.14" height="9.14" fill="#0A0B10"/><rect x="72.00" y="1035.44" width="9.14" height="9.14" fill="#0A0B10"/><rect x="89.28" y="1035.44" width="9.14" height="9.14" fill="#0A0B10"/><rect x="97.92" y="1035.44" width="9.14" height="9.14" fill="#0A0B10"/><rect x="106.56" y="1035.44" width="9.14" height="9.14" fill="#0A0B10"/><rect x="123.84" y="1035.44" width="9.14" height="9.14" fill="#0A0B10"/><rect x="141.12" y="1035.44" width="9.14" height="9.14" fill="#0A0B10"/><rect x="175.68" y="1035.44" width="9.14" height="9.14" fill="#0A0B10"/><rect x="184.32" y="1035.44" width="9.14" height="9.14" fill="#0A0B10"/><rect x="192.96" y="1035.44" width="9.14" height="9.14" fill="#0A0B10"/><rect x="210.24" y="1035.44" width="9.14" height="9.14" fill="#0A0B10"/><rect x="236.16" y="1035.44" width="9.14" height="9.14" fill="#0A0B10"/><rect x="244.80" y="1035.44" width="9.14" height="9.14" fill="#0A0B10"/><rect x="262.08" y="1035.44" width="9.14" height="9.14" fill="#0A0B10"/><rect x="279.36" y="1035.44" width="9.14" height="9.14" fill="#0A0B10"/><rect x="72.00" y="1044.08" width="9.14" height="9.14" fill="#0A0B10"/><rect x="89.28" y="1044.08" width="9.14" height="9.14" fill="#0A0B10"/><rect x="97.92" y="1044.08" width="9.14" height="9.14" fill="#0A0B10"/><rect x="106.56" y="1044.08" width="9.14" height="9.14" fill="#0A0B10"/><rect x="123.84" y="1044.08" width="9.14" height="9.14" fill="#0A0B10"/><rect x="141.12" y="1044.08" width="9.14" height="9.14" fill="#0A0B10"/><rect x="149.76" y="1044.08" width="9.14" height="9.14" fill="#0A0B10"/><rect x="158.40" y="1044.08" width="9.14" height="9.14" fill="#0A0B10"/><rect x="167.04" y="1044.08" width="9.14" height="9.14" fill="#0A0B10"/><rect x="184.32" y="1044.08" width="9.14" height="9.14" fill="#0A0B10"/><rect x="192.96" y="1044.08" width="9.14" height="9.14" fill="#0A0B10"/><rect x="201.60" y="1044.08" width="9.14" height="9.14" fill="#0A0B10"/><rect x="218.88" y="1044.08" width="9.14" height="9.14" fill="#0A0B10"/><rect x="236.16" y="1044.08" width="9.14" height="9.14" fill="#0A0B10"/><rect x="244.80" y="1044.08" width="9.14" height="9.14" fill="#0A0B10"/><rect x="253.44" y="1044.08" width="9.14" height="9.14" fill="#0A0B10"/><rect x="262.08" y="1044.08" width="9.14" height="9.14" fill="#0A0B10"/><rect x="270.72" y="1044.08" width="9.14" height="9.14" fill="#0A0B10"/><rect x="72.00" y="1052.72" width="9.14" height="9.14" fill="#0A0B10"/><rect x="123.84" y="1052.72" width="9.14" height="9.14" fill="#0A0B10"/><rect x="158.40" y="1052.72" width="9.14" height="9.14" fill="#0A0B10"/><rect x="227.52" y="1052.72" width="9.14" height="9.14" fill="#0A0B10"/><rect x="244.80" y="1052.72" width="9.14" height="9.14" fill="#0A0B10"/><rect x="262.08" y="1052.72" width="9.14" height="9.14" fill="#0A0B10"/><rect x="72.00" y="1061.36" width="9.14" height="9.14" fill="#0A0B10"/><rect x="80.64" y="1061.36" width="9.14" height="9.14" fill="#0A0B10"/><rect x="89.28" y="1061.36" width="9.14" height="9.14" fill="#0A0B10"/><rect x="97.92" y="1061.36" width="9.14" height="9.14" fill="#0A0B10"/><rect x="106.56" y="1061.36" width="9.14" height="9.14" fill="#0A0B10"/><rect x="115.20" y="1061.36" width="9.14" height="9.14" fill="#0A0B10"/><rect x="123.84" y="1061.36" width="9.14" height="9.14" fill="#0A0B10"/><rect x="141.12" y="1061.36" width="9.14" height="9.14" fill="#0A0B10"/><rect x="149.76" y="1061.36" width="9.14" height="9.14" fill="#0A0B10"/><rect x="175.68" y="1061.36" width="9.14" height="9.14" fill="#0A0B10"/><rect x="192.96" y="1061.36" width="9.14" height="9.14" fill="#0A0B10"/><rect x="236.16" y="1061.36" width="9.14" height="9.14" fill="#0A0B10"/><rect x="244.80" y="1061.36" width="9.14" height="9.14" fill="#0A0B10"/><rect x="253.44" y="1061.36" width="9.14" height="9.14" fill="#0A0B10"/><rect x="262.08" y="1061.36" width="9.14" height="9.14" fill="#0A0B10"/><rect x="270.72" y="1061.36" width="9.14" height="9.14" fill="#0A0B10"/><rect x="279.36" y="1061.36" width="9.14" height="9.14" fill="#0A0B10"/>
  <text x="342" y="868" font-family="'IBM Plex Mono','Consolas','Courier New',monospace" font-size="12.5" letter-spacing="2.4" fill="#8B8C97">SCAN AT THE DOOR</text>
  <text x="342" y="908" font-family="'Space Grotesk','Segoe UI','Archivo',Arial,sans-serif" font-weight="700" font-size="26" fill="#F4F1EA">One tap.</text>
  <text x="342" y="938" font-family="'Space Grotesk','Segoe UI','Archivo',Arial,sans-serif" font-weight="700" font-size="26" fill="#F4F1EA">One entry.</text>
  <text x="342" y="984" font-family="'IBM Plex Mono','Consolas','Courier New',monospace" font-size="14" letter-spacing="1" fill="#8B8C97">ZORA-OFF1-4471-88AK</text>
  <text x="342" y="1008" font-family="'IBM Plex Mono','Consolas','Courier New',monospace" font-size="12.5" letter-spacing="1.5" fill="#8B8C97">SINGLE USE · NON-TRANSFERABLE</text>
  <line x1="52" y1="1104" x2="708" y2="1104" stroke="rgba(255,255,255,0.13)" stroke-width="1.5"/>
  <text x="52" y="1134" font-family="'Space Grotesk','Segoe UI','Archivo',Arial,sans-serif" font-weight="600" font-size="15" fill="#8B8C97">zora.com</text>
  <text x="708" y="1134" text-anchor="end" font-family="'IBM Plex Mono','Consolas','Courier New',monospace" font-size="12.5" letter-spacing="1.5" fill="#8B8C97">THE TICKET IS THE PRODUCT</text>
</svg>